<?xml version="1.0"?>
<svg xmlns="http://www.w3.org/2000/svg" id="Capa_1" enable-background="new 0 0 503.571 503.571" height="512px" viewBox="0 0 503.571 503.571" width="512px"><g><g><path d="m460.622 391.945c-4.137-.25-7.709 2.846-7.988 6.979l-2.493 36.923c-.845 12.527-11.344 22.341-23.9 22.341h-166.569c-4.143 0-7.5 3.357-7.5 7.5s3.357 7.5 7.5 7.5h166.568c20.42 0 37.492-15.958 38.867-36.331l2.493-36.923c.279-4.133-2.845-7.709-6.978-7.989z" data-original="#000000" class="active-path" data-old_color="#000000" fill="#009933"/><path d="m482.085 30.384h-356.939c-11.848 0-21.486 9.639-21.486 21.486v12.619c0 8.313 4.753 15.522 11.677 19.094v41.049c0 20.892 3.428 40.996 9.743 59.787l9.194 136.177c.268 3.961 3.563 6.995 7.476 6.995.17 0 .341-.006.513-.017 4.133-.279 7.257-3.855 6.979-7.988l-6.575-97.391c33.043 54.258 92.762 90.566 160.803 90.566 68.274 0 128.166-36.561 161.138-91.129l-9.813 145.328c-.278 4.133 2.846 7.709 6.979 7.988.172.011.343.017.513.017 3.911 0 7.208-3.034 7.476-6.995l12.156-180.042c.064-.949-.059-1.866-.325-2.723 6.484-19.016 10.007-39.391 10.007-60.574v-40.904c7.083-3.517 11.975-10.808 11.975-19.237v-12.62c-.005-11.848-9.643-21.486-21.491-21.486zm-363.426 21.486c0-3.576 2.91-6.486 6.486-6.486h356.939c3.576 0 6.486 2.91 6.486 6.486v12.619c0 3.576-2.91 6.486-6.486 6.486h-42.351c-4.143 0-7.5 3.357-7.5 7.5s3.357 7.5 7.5 7.5h6.862v38.656c0 78.922-64.208 143.13-143.13 143.13-78.923 0-143.131-64.208-143.131-143.13v-38.655h247.436c4.143 0 7.5-3.357 7.5-7.5s-3.357-7.5-7.5-7.5h-282.624c-3.576 0-6.486-2.91-6.486-6.486v-12.62zm184.808 245.892c-95.465 0-173.131-77.666-173.131-173.13v-38.656h15v38.656c0 87.193 70.938 158.13 158.131 158.13s158.13-70.937 158.13-158.13v-38.656h15v38.656c0 95.464-77.666 173.13-173.13 173.13z" data-original="#000000" class="active-path" data-old_color="#000000" fill="#009933"/><path d="m218.65 402.614v-29.1c0-17.052-13.873-30.924-30.925-30.924h-89.331c-4.143 0-7.5 3.357-7.5 7.5s3.357 7.5 7.5 7.5h89.332c8.781 0 15.925 7.144 15.925 15.924v25.844h-169.557v-25.844c0-8.78 7.144-15.924 15.925-15.924h16.413c4.143 0 7.5-3.357 7.5-7.5s-3.357-7.5-7.5-7.5h-16.413c-17.052 0-30.925 13.872-30.925 30.924v29.1c-11.281 5.392-19.094 16.914-19.094 30.229v26.463c0 7.654 6.228 13.882 13.882 13.882h209.98c7.654 0 13.882-6.228 13.882-13.882v-26.463c0-13.315-7.813-24.837-19.094-30.229zm4.094 55.574h-26.663v-12.876c0-4.143-3.357-7.5-7.5-7.5s-7.5 3.357-7.5 7.5v12.876h-20.39v-12.876c0-4.143-3.357-7.5-7.5-7.5s-7.5 3.357-7.5 7.5v12.876h-20.39v-12.876c0-4.143-3.357-7.5-7.5-7.5s-7.5 3.357-7.5 7.5v12.876h-20.39v-12.876c0-4.143-3.357-7.5-7.5-7.5s-7.5 3.357-7.5 7.5v12.876h-20.39v-12.876c0-4.143-3.357-7.5-7.5-7.5s-7.5 3.357-7.5 7.5v12.876h-24.521v-25.345c0-10.192 8.292-18.484 18.484-18.484h170.776c10.192 0 18.484 8.292 18.484 18.484z" data-original="#000000" class="active-path" data-old_color="#000000" fill="#009933"/></g></g> </svg>
