<svg id="Capa_1" enable-background="new 0 0 511.998 511.998" height="512" viewBox="0 0 511.998 511.998" width="512" xmlns="http://www.w3.org/2000/svg"><g><path d="m255.999 0c-141.491 0-255.999 114.496-255.999 255.999 0 141.491 114.496 255.999 255.999 255.999 141.491 0 255.999-114.496 255.999-255.999 0-141.491-114.496-255.999-255.999-255.999zm0 496.998c-132.888 0-240.999-108.111-240.999-240.999s108.111-240.999 240.999-240.999 240.999 108.111 240.999 240.999-108.111 240.999-240.999 240.999z"/><path d="m255.999 38.46c-57.079 0-112.057 21.949-153.823 63.716-59.857 59.857-62.635 131.865-62.285 128.789-14.774 129.83 86.311 242.573 216.108 242.573 116.481 0 208.908-90.916 216.876-200.479 0-.001 0-.002 0-.003 9.781-126.948-90.156-234.596-216.876-234.596zm22.793 16.29c23.698 2.667 46.169 9.436 66.688 19.584h-66.688zm-45.586 0v19.584h-66.688c20.519-10.148 42.99-16.917 66.688-19.584zm-127.098 65.171h127.098v17.962h-141.638c4.511-6.262 9.362-12.263 14.54-17.962zm-39.21 63.548h166.308v17.962h-172.271c1.711-6.109 3.707-12.1 5.963-17.962zm-5.963 127.097h172.271v17.962h-166.308c-2.256-5.862-4.252-11.853-5.963-17.962zm30.632 63.548h141.639v17.963h-127.098c-5.178-5.699-10.03-11.701-14.541-17.963zm141.639 83.134c-23.699-2.667-46.171-9.436-66.69-19.585h66.69zm45.586 0v-19.585h66.69c-20.519 10.149-42.991 16.919-66.69 19.585zm127.098-65.171h-127.098v-17.963h141.639c-4.511 6.262-9.363 12.264-14.541 17.963zm39.21-63.549h-166.308v-17.962h172.271c-1.711 6.109-3.707 12.1-5.963 17.962zm13.229-63.549h-179.537v-17.962h179.536c.279 6.351.28 11.585.001 17.962zm-7.266-63.548h-172.271v-17.962h166.308c2.256 5.862 4.252 11.853 5.963 17.962zm-138.856-96.51h-35.28c-7.242 0-13.135 5.893-13.135 13.135v21.691c0 7.243 5.893 13.136 13.135 13.136h153.33c3.006 5.06 5.808 10.255 8.373 15.586h-161.703c-7.242 0-13.135 5.893-13.135 13.136v21.691c0 7.242 5.893 13.135 13.135 13.135h177.72c1.165 5.865 1.85 10.39 2.465 15.587h-180.185c-7.242 0-13.135 5.893-13.135 13.135v21.692c0 7.242 5.893 13.135 13.135 13.135h180.185c-.628 5.32-1.321 9.834-2.465 15.587h-177.72c-7.242 0-13.135 5.893-13.135 13.135v21.692c0 7.242 5.893 13.135 13.135 13.135h161.703c-2.565 5.331-5.367 10.526-8.373 15.586h-153.33c-7.242 0-13.135 5.893-13.135 13.136v21.692c0 7.242 5.893 13.135 13.135 13.135h113.813c-6.262 5.591-12.872 10.797-19.793 15.586h-94.019c-7.242 0-13.135 5.893-13.135 13.135v22.576c-5.77.217-9.642.224-15.586 0v-22.576c0-7.242-5.893-13.135-13.136-13.135h-94.018c-6.921-4.789-13.531-9.995-19.793-15.586h113.81c7.243 0 13.136-5.893 13.136-13.135v-21.693c0-7.243-5.893-13.136-13.136-13.136h-153.329c-3.006-5.06-5.808-10.255-8.373-15.586h161.702c7.243 0 13.136-5.893 13.136-13.135v-21.692c0-7.242-5.893-13.135-13.136-13.135h-177.718c-1.139-5.732-1.835-10.249-2.465-15.587h180.183c7.243 0 13.136-5.893 13.136-13.135v-21.692c0-7.242-5.893-13.135-13.136-13.135h-53.196c-4.143 0-7.5 3.357-7.5 7.5s3.357 7.5 7.5 7.5h51.332v17.962h-179.537c-.279-6.363-.279-11.596 0-17.962h93.204c4.143 0 7.5-3.357 7.5-7.5s-3.357-7.5-7.5-7.5h-91.987c.634-5.348 1.314-9.791 2.465-15.587h177.719c7.243 0 13.136-5.893 13.136-13.135v-21.691c0-7.243-5.893-13.136-13.136-13.136h-161.701c2.565-5.331 5.367-10.526 8.373-15.586h153.328c7.243 0 13.136-5.893 13.136-13.136v-21.691c0-7.242-5.893-13.135-13.136-13.135h-113.811c6.263-5.591 12.873-10.798 19.795-15.587h94.017c7.243 0 13.136-5.893 13.136-13.135v-22.574c6.077-.23 10.041-.21 15.586 0v22.575c0 7.242 5.893 13.135 13.135 13.135h94.018c6.922 4.789 13.532 9.996 19.795 15.587h-43.532c-4.143 0-7.5 3.357-7.5 7.5s3.357 7.5 7.5 7.5h58.683c5.179 5.699 10.03 11.7 14.541 17.962h-141.641v-17.962h33.415c4.143 0 7.5-3.357 7.5-7.5s-3.357-7.5-7.5-7.5z"/></g></svg>