<svg height="480pt" viewBox="0 0 480 480" width="480pt" xmlns="http://www.w3.org/2000/svg"><path d="m440 0h-400c-22.082031.0273438-39.9726562 17.917969-40 40v400c.0273438 22.082031 17.917969 39.972656 40 40h400c22.082031-.027344 39.972656-17.917969 40-40v-400c-.027344-22.082031-17.917969-39.9726562-40-40zm24 440c0 13.253906-10.746094 24-24 24h-400c-13.253906 0-24-10.746094-24-24v-400c0-13.253906 10.746094-24 24-24h400c13.253906 0 24 10.746094 24 24zm0 0"/><path d="m240 48c-106.039062 0-192 85.960938-192 192s85.960938 192 192 192 192-85.960938 192-192c-.125-105.988281-86.011719-191.875-192-192zm0 368c-97.203125 0-176-78.796875-176-176s78.796875-176 176-176 176 78.796875 176 176c-.109375 97.15625-78.84375 175.890625-176 176zm0 0"/><path d="m424 32c-13.253906 0-24 10.746094-24 24s10.746094 24 24 24 24-10.746094 24-24-10.746094-24-24-24zm0 32c-4.417969 0-8-3.582031-8-8s3.582031-8 8-8 8 3.582031 8 8-3.582031 8-8 8zm0 0"/><path d="m56 80c13.253906 0 24-10.746094 24-24s-10.746094-24-24-24-24 10.746094-24 24 10.746094 24 24 24zm0-32c4.417969 0 8 3.582031 8 8s-3.582031 8-8 8-8-3.582031-8-8 3.582031-8 8-8zm0 0"/><path d="m424 400c-13.253906 0-24 10.746094-24 24s10.746094 24 24 24 24-10.746094 24-24-10.746094-24-24-24zm0 32c-4.417969 0-8-3.582031-8-8s3.582031-8 8-8 8 3.582031 8 8-3.582031 8-8 8zm0 0"/><path d="m56 400c-13.253906 0-24 10.746094-24 24s10.746094 24 24 24 24-10.746094 24-24-10.746094-24-24-24zm0 32c-4.417969 0-8-3.582031-8-8s3.582031-8 8-8 8 3.582031 8 8-3.582031 8-8 8zm0 0"/><path d="m120 232h240c13.253906 0 24-10.746094 24-24s-10.746094-24-24-24h-240c-13.253906 0-24 10.746094-24 24s10.746094 24 24 24zm0-32h240c4.417969 0 8 3.582031 8 8s-3.582031 8-8 8h-240c-4.417969 0-8-3.582031-8-8s3.582031-8 8-8zm0 0"/><path d="m144 168h192c13.253906 0 24-10.746094 24-24s-10.746094-24-24-24h-192c-13.253906 0-24 10.746094-24 24s10.746094 24 24 24zm0-32h192c4.417969 0 8 3.582031 8 8s-3.582031 8-8 8h-192c-4.417969 0-8-3.582031-8-8s3.582031-8 8-8zm0 0"/><path d="m360 248h-240c-13.253906 0-24 10.746094-24 24s10.746094 24 24 24h240c13.253906 0 24-10.746094 24-24s-10.746094-24-24-24zm0 32h-240c-4.417969 0-8-3.582031-8-8s3.582031-8 8-8h240c4.417969 0 8 3.582031 8 8s-3.582031 8-8 8zm0 0"/><path d="m336 312h-192c-13.253906 0-24 10.746094-24 24s10.746094 24 24 24h192c13.253906 0 24-10.746094 24-24s-10.746094-24-24-24zm0 32h-192c-4.417969 0-8-3.582031-8-8s3.582031-8 8-8h192c4.417969 0 8 3.582031 8 8s-3.582031 8-8 8zm0 0"/></svg>