<svg height="512pt" viewBox="0 0 512 512" width="512pt" xmlns="http://www.w3.org/2000/svg"><path d="m256 221.601562c46.867188 0 85-38.128906 85-85v-1.992187c0-18.765625-11.910156-44.007813-36.414062-77.167969-16.6875-22.582031-33.148438-40.597656-33.839844-41.351562l-14.746094-16.089844-14.746094 16.089844c-.691406.757812-17.152344 18.769531-33.839844 41.351562-24.503906 33.160156-36.414062 58.402344-36.414062 77.167969v1.992187c0 46.871094 38.132812 85 85 85zm-45-86.992187c0-2.445313 1.367188-16.503906 28.390625-53.132813 5.769531-7.824218 11.582031-15.128906 16.613281-21.226562 4.960938 6.015625 10.691406 13.222656 16.410156 20.960938 27.207032 36.820312 28.585938 50.941406 28.585938 53.398437v1.992187c0 24.8125-20.1875 45-45 45s-45-20.1875-45-45zm241 5.992187h-71.070312c-.445313 14.035157-3.210938 27.492188-7.933594 40h79.003906c11.027344 0 20 8.972657 20 20v60h-432v-60c0-11.027343 8.972656-20 20-20h79.003906c-4.722656-12.507812-7.488281-25.964843-7.933594-40h-71.070312c-33.085938 0-60 26.917969-60 60v251c0 33.085938 26.914062 60 60 60h392c33.085938 0 60-26.914062 60-60v-251c0-33.082031-26.914062-60-60-60zm20 160v67h-196v-67zm-236 0v67h-196v-67zm-196 151v-44h196v64h-176c-11.027344 0-20-8.96875-20-20zm412 20h-176v-64h196v44c0 11.03125-8.972656 20-20 20zm0 0"/></svg>