<?xml version="1.0"?>
<svg xmlns="http://www.w3.org/2000/svg" viewBox="0 0 512 512" width="512" height="512"><g id="Drone_Watering_Farm" data-name="Drone Watering Farm"><g id="Outline"><path d="M504,80H488V56a8,8,0,0,0-8-8h-8V32h32a8,8,0,0,0,0-16H472V8a8,8,0,0,0-16,0v8H424a8,8,0,0,0,0,16h32V48h-8a8,8,0,0,0-8,8V80H400V72a8,8,0,0,0-8-8H360a8,8,0,0,0-8,8v8H333.544L311.491,21.191A8,8,0,0,0,304,16H208a8,8,0,0,0-7.491,5.191L178.456,80H160V72a8,8,0,0,0-8-8H120a8,8,0,0,0-8,8v8H72V56a8,8,0,0,0-8-8H56V32H88a8,8,0,0,0,0-16H56V8A8,8,0,0,0,40,8v8H8A8,8,0,0,0,8,32H40V48H32a8,8,0,0,0-8,8V80H8a8,8,0,0,0-8,8v32a8,8,0,0,0,8,8H24v24a8,8,0,0,0,8,8H64a8,8,0,0,0,8-8V128h40v24a8,8,0,0,0,8,8h32a8,8,0,0,0,8-8V128h64a8,8,0,0,0,0-16H160V96h24a8,8,0,0,0,7.491-5.191L213.544,32h84.912l22.053,58.809A8,8,0,0,0,328,96h24v16H288a8,8,0,0,0,0,16h64v24a8,8,0,0,0,8,8h32a8,8,0,0,0,8-8V128h40v24a8,8,0,0,0,8,8h32a8,8,0,0,0,8-8V128h16a8,8,0,0,0,8-8V88A8,8,0,0,0,504,80ZM24,112H16V96h8Zm32,32H40V64H56Zm56-32H72V96h40Zm32,32H128V80h16Zm240,0H368V80h16Zm56-32H400V96h40Zm32,32H456V64h16Zm24-32h-8V96h8Z"/><circle cx="48" cy="184" r="8"/><circle cx="64" cy="232" r="8"/><circle cx="48" cy="280" r="8"/><circle cx="32" cy="232" r="8"/><circle cx="16" cy="280" r="8"/><circle cx="80" cy="280" r="8"/><circle cx="136" cy="232" r="8"/><circle cx="152" cy="280" r="8"/><circle cx="136" cy="328" r="8"/><circle cx="120" cy="280" r="8"/><circle cx="104" cy="328" r="8"/><circle cx="168" cy="328" r="8"/><circle cx="376" cy="232" r="8"/><circle cx="136" cy="200" r="8"/><circle cx="376" cy="200" r="8"/><circle cx="256" cy="120" r="8"/><circle cx="392" cy="280" r="8"/><circle cx="376" cy="328" r="8"/><circle cx="360" cy="280" r="8"/><circle cx="344" cy="328" r="8"/><circle cx="408" cy="328" r="8"/><circle cx="464" cy="184" r="8"/><circle cx="480" cy="232" r="8"/><circle cx="464" cy="280" r="8"/><circle cx="448" cy="232" r="8"/><circle cx="432" cy="280" r="8"/><circle cx="496" cy="280" r="8"/><path d="M280,64a8,8,0,0,0,0-16H232a8,8,0,0,0,0,16Z"/><path d="M208,88a8,8,0,0,0,8,8h80a8,8,0,0,0,0-16H216A8,8,0,0,0,208,88Z"/><path d="M504,496H478.58A48.11,48.11,0,0,0,440,456.812v-27.42a47.146,47.146,0,0,0,14.306,2.306,41.635,41.635,0,0,0,19.908-5.057c22.3-11.954,36.542-44.69,37.138-46.078a8,8,0,0,0-5.912-11.024c-1.485-.273-36.637-6.521-58.931,5.435A41.619,41.619,0,0,0,432,387.729a41.6,41.6,0,0,0-14.509-12.755c-22.294-11.955-57.445-5.707-58.931-5.435a8,8,0,0,0-5.912,11.024c.6,1.388,14.843,34.124,37.138,46.078a41.623,41.623,0,0,0,19.908,5.057A47.115,47.115,0,0,0,424,429.391v27.158A48.11,48.11,0,0,0,383.939,496H302.58A48.108,48.108,0,0,0,263.5,456.723v-27.5a47.309,47.309,0,0,0,14.8,2.47,41.635,41.635,0,0,0,19.908-5.057c22.3-11.954,36.542-44.69,37.138-46.078a8,8,0,0,0-5.912-11.024c-1.485-.273-36.637-6.521-58.931,5.435A41.616,41.616,0,0,0,255.63,388.25a41.611,41.611,0,0,0-14.88-13.276c-22.293-11.955-57.444-5.707-58.931-5.435a8,8,0,0,0-5.911,11.024c.595,1.388,14.842,34.124,37.137,46.078a41.626,41.626,0,0,0,19.908,5.057A47.2,47.2,0,0,0,247.5,429.31v27.325A48.109,48.109,0,0,0,207.939,496H127.321A48.11,48.11,0,0,0,88,456.679V429.146a47.389,47.389,0,0,0,15.047,2.552,41.637,41.637,0,0,0,19.908-5.057c22.3-11.954,36.542-44.69,37.137-46.078a8,8,0,0,0-5.911-11.024c-1.485-.272-36.637-6.521-58.931,5.435a41.6,41.6,0,0,0-15.257,13.838,41.6,41.6,0,0,0-15.256-13.838c-22.295-11.956-57.446-5.708-58.932-5.435A8,8,0,0,0-.106,380.563c.6,1.388,14.842,34.124,37.137,46.078A41.623,41.623,0,0,0,56.939,431.7,47.375,47.375,0,0,0,72,429.141v27.538A48.11,48.11,0,0,0,32.679,496H8a8,8,0,0,0,0,16H504a8,8,0,0,0,0-16ZM454.07,389.074c10.859-5.822,27.015-5.863,37.648-5.067-5.626,9.939-14.746,23-25.065,28.534-10.289,5.517-20.377,2.605-26.048-.013-.09-1.189-.243-2.588-.484-4.136C441.491,402.255,445.019,393.927,454.07,389.074ZM423.4,412.529c-5.655,2.606-15.757,5.53-26.048.012-10.85-5.818-19.819-19.237-25.042-28.535,10.636-.795,26.776-.75,37.625,5.068,9.051,4.853,12.579,13.18,13.949,19.317C423.638,409.94,423.485,411.34,423.4,412.529ZM278.07,389.074c10.859-5.822,27.014-5.863,37.648-5.067-5.626,9.939-14.746,23-25.065,28.534-10.782,5.781-21.331,2.309-26.82-.385-.039-.471-.087-.967-.146-1.5C264.664,404.48,267.842,394.558,278.07,389.074Zm-175.26,0c10.859-5.822,27.014-5.863,37.648-5.067-5.625,9.939-14.746,23-25.064,28.534-11,5.9-21.768,2.165-27.157-.547C88.961,406.033,91.809,394.974,102.81,389.074ZM44.592,412.541c-10.85-5.818-19.819-19.237-25.042-28.535,10.636-.795,26.776-.75,37.626,5.068,11,5.9,13.847,16.933,14.572,22.923C66.381,414.691,55.594,418.439,44.592,412.541ZM49.013,496a32,32,0,0,1,61.974,0Zm198.413-83.842c-5.468,2.679-16.035,6.166-26.82.383-10.85-5.818-19.819-19.237-25.042-28.535,10.638-.794,26.777-.749,37.626,5.068,10.227,5.484,13.405,15.406,14.383,21.586C247.513,411.189,247.465,411.686,247.426,412.158ZM224.272,496a32,32,0,0,1,61.975,0Zm176,0a32,32,0,0,1,61.975,0Z"/></g></g></svg>
