<?xml version="1.0"?>
<svg xmlns="http://www.w3.org/2000/svg" height="512px" viewBox="0 0 512 512" width="512px" class=""><g><path d="m0 181h79v150h-79zm0 0" data-original="#000000" class="active-path" data-old_color="#000000" fill="#7C3F2C"/><path d="m433 181h79v150h-79zm0 0" data-original="#000000" class="active-path" data-old_color="#000000" fill="#7C3F2C"/><path d="m109 91h78v150h-78zm0 0" data-original="#000000" class="active-path" data-old_color="#000000" fill="#7C3F2C"/><path d="m109 271h78v150h-78zm0 0" data-original="#000000" class="active-path" data-old_color="#000000" fill="#7C3F2C"/><path d="m325 91h78v150h-78zm0 0" data-original="#000000" class="active-path" data-old_color="#000000" fill="#7C3F2C"/><path d="m325 271h78v150h-78zm0 0" data-original="#000000" class="active-path" data-old_color="#000000" fill="#7C3F2C"/><path d="m217 181h78v150h-78zm0 0" data-original="#000000" class="active-path" data-old_color="#000000" fill="#7C3F2C"/><path d="m217 361h78v151h-78zm0 0" data-original="#000000" class="active-path" data-old_color="#000000" fill="#7C3F2C"/><path d="m217 0h78v151h-78zm0 0" data-original="#000000" class="active-path" data-old_color="#000000" fill="#7C3F2C"/></g> </svg>
