<?xml version="1.0"?>
<svg xmlns="http://www.w3.org/2000/svg" height="512px" viewBox="0 0 512 512" width="512px"><g><g id="solid"><path d="m98.246 480h15.508l12-48h-15.508z" data-original="#000000" class="active-path" data-old_color="#000000" fill="#009933"/><path d="m66.246 480h15.508l12-48h-15.508z" data-original="#000000" class="active-path" data-old_color="#000000" fill="#009933"/><path d="m175.063 432-6 48h29.875l-6-48z" data-original="#000000" class="active-path" data-old_color="#000000" fill="#009933"/><path d="m130.246 480h22.692l6-48h-16.692z" data-original="#000000" class="active-path" data-old_color="#000000" fill="#009933"/><path d="m192 40a8 8 0 0 0 -16 0v344h16z" data-original="#000000" class="active-path" data-old_color="#000000" fill="#009933"/><path d="m209.063 432 6 48h22.691l-12-48z" data-original="#000000" class="active-path" data-old_color="#000000" fill="#009933"/><path d="m80 400h208v16h-208z" data-original="#000000" class="active-path" data-old_color="#000000" fill="#009933"/><path d="m434 256h-2v-8a88 88 0 0 0 -176 0v32h-16v16h80v-16h-48v-32a72 72 0 1 1 144 0v8h-66a14.015 14.015 0 0 0 -14 14v57.56a8.688 8.688 0 0 0 2.6 6.139 7.7 7.7 0 0 0 5.412 2.3h.11a7.992 7.992 0 0 0 7.878-7.999v-32h16v32a8 8 0 0 0 16 0v-32h16v32a8 8 0 0 0 16 0v-32h16v32a8 8 0 0 0 8.4 7.99 8.327 8.327 0 0 0 7.6-8.442v-57.548a14.015 14.015 0 0 0 -14-14z" data-original="#000000" class="active-path" data-old_color="#000000" fill="#009933"/><path d="m408 352a23.9 23.9 0 0 1 -16-6.126 23.957 23.957 0 0 1 -32 0 24.107 24.107 0 0 1 -15.632 6.126 23.6 23.6 0 0 1 -16.992-6.9 24.787 24.787 0 0 1 -7.376-17.54v-15.56h-71.114l7.576 72h31.538a16.019 16.019 0 0 1 16 16v23.015l6.246 24.985h114.554l10.162-96.544a23.755 23.755 0 0 1 -10.968-5.574 23.905 23.905 0 0 1 -15.994 6.118zm0 80h-16v-40h16zm0-56h-16v-16h16z" data-original="#000000" class="active-path" data-old_color="#000000" fill="#009933"/><path d="m318.246 480h105.754v-16h-109.754z" data-original="#000000" class="active-path" data-old_color="#000000" fill="#009933"/><path d="m274.246 432 12 48h15.508l-12-48z" data-original="#000000" class="active-path" data-old_color="#000000" fill="#009933"/><path d="m242.246 432 12 48h15.508l-12-48z" data-original="#000000" class="active-path" data-old_color="#000000" fill="#009933"/><circle cx="104" cy="240" r="14.432" data-original="#000000" class="active-path" data-old_color="#000000" fill="#009933"/><circle cx="456" cy="144" r="14.432" data-original="#000000" class="active-path" data-old_color="#000000" fill="#009933"/><circle cx="56" cy="336" r="14.432" data-original="#000000" class="active-path" data-old_color="#000000" fill="#009933"/></g></g> </svg>
