<svg id="Layer_1" enable-background="new 0 0 512 512" height="512" viewBox="0 0 512 512" width="512" xmlns="http://www.w3.org/2000/svg"><g><g><path d="m235.874 266.977c0-20.678-16.822-37.5-37.5-37.5s-37.5 16.822-37.5 37.5 16.822 37.5 37.5 37.5 37.5-16.823 37.5-37.5zm-30 21.21v-13.313h13.566c-2.33 6.194-7.317 11.096-13.566 13.313zm13.844-28.314h-13.844v-14.106c6.513 2.31 11.653 7.538 13.844 14.106zm-28.844-14.106v14.106h-13.844c2.192-6.568 7.331-11.796 13.844-14.106zm-13.566 29.106h13.566v13.313c-6.249-2.216-11.236-7.118-13.566-13.313z"/><path d="m494.972 465.914c.01-.278.021-.556.021-.836 0-6.666-2.916-12.661-7.537-16.785-.299-16.914-14.147-30.583-31.136-30.583h-4.795v-16.653c0-7.02-5.711-12.73-12.73-12.73h-37.539c-1.076 0-2.115.149-3.114.401l-24.289-42.717c-1.333-2.345-3.822-3.793-6.519-3.793h-9.372c-4.142 0-7.5 3.357-7.5 7.5s3.358 7.5 7.5 7.5h5.008l25.555 44.943v15.549h-4.795c-17.176 0-31.15 13.969-31.15 31.14v.981c-3.687 3.995-5.95 9.322-5.97 15.169h-.081v-21.508c0-.029.004-.058.004-.087v-123.254c0-.029-.004-.058-.004-.087v-.692l14.011 10.758c9.839 7.556 23.992 5.697 31.549-4.143 3.66-4.767 5.245-10.674 4.462-16.633s-3.839-11.257-8.606-14.917l-61.105-46.917c-3.285-2.521-7.993-1.904-10.516 1.382-2.522 3.285-1.904 7.993 1.381 10.517l61.105 46.917c1.589 1.22 2.608 2.985 2.869 4.972.261 1.986-.267 3.956-1.487 5.544-2.52 3.28-7.237 3.899-10.517 1.381l-166.733-128.022c-2.693-2.068-6.441-2.067-9.135.001l-166.735 128.031c-1.323 1.016-2.899 1.553-4.558 1.553-2.355 0-4.527-1.069-5.959-2.935-1.22-1.588-1.749-3.557-1.488-5.543s1.279-3.751 2.868-4.972l175.87-135.046c2.689-2.066 6.446-2.066 9.136 0l89.392 68.636c3.284 2.521 7.994 1.905 10.516-1.382 2.522-3.285 1.904-7.993-1.381-10.517l-89.392-68.636c-8.067-6.193-19.337-6.194-27.406.001l-49.508 38.016c.66-1.117 1.046-2.415 1.046-3.806v-30c0-4.143-3.358-7.5-7.5-7.5h-64c-4.142 0-7.5 3.357-7.5 7.5v30c0 2.935 1.69 5.469 4.146 6.701v53.781l-52.553 40.356c-4.767 3.659-7.823 8.957-8.605 14.915-.782 5.959.803 11.866 4.463 16.632 4.293 5.592 10.801 8.799 17.856 8.799 4.991 0 9.726-1.609 13.693-4.655l14.006-10.755v32.384c0 4.143 3.358 7.5 7.5 7.5s7.5-3.357 7.5-7.5v-43.902l133.162-102.252 133.156 102.239v4.796h-82.977c-4.142 0-7.5 3.357-7.5 7.5v123.254c0 4.143 3.358 7.5 7.5 7.5h39.628c4.142 0 7.5-3.357 7.5-7.5s-3.358-7.5-7.5-7.5h-32.128v-108.254h75.478v108.254h-10.94c-4.142 0-7.5 3.357-7.5 7.5s3.358 7.5 7.5 7.5h10.94v14.095h-111.351v-145.349c0-4.143-3.358-7.5-7.5-7.5h-120c-4.142 0-7.5 3.357-7.5 7.5v145.349h-19.97v-81.077c0-4.143-3.358-7.5-7.5-7.5s-7.5 3.357-7.5 7.5v81.077h-26.71c-6.269 0-12.17 2.438-16.632 6.886-4.428 4.444-6.867 10.344-6.867 16.614 0 12.958 10.542 23.5 23.5 23.5h464.997c6.27 0 12.17-2.438 16.632-6.886 4.429-4.444 6.868-10.344 6.868-16.614 0-10.713-7.208-19.768-17.028-22.586zm-422.764-294.801h49v15h-49zm4.146 30h40.708v10.205l-40.708 31.259zm388.639 263.964c0-4.136 3.364-7.5 7.5-7.5s7.5 3.364 7.5 7.5-3.364 7.5-7.5 7.5-7.5-3.364-7.5-7.5zm-28.468-61.751v14.379h-21.907l-8.176-14.379zm-52.794 29.384h72.589c6.695 0 12.449 4.093 14.895 9.906-11.788.664-21.179 10.443-21.219 22.384h-58.388c-.042-12.371-10.117-22.423-22.498-22.423-.088 0-.174.006-.261.007 2.452-5.796 8.199-9.874 14.882-9.874zm-22.122 32.367c0-4.136 3.364-7.5 7.5-7.5s7.5 3.364 7.5 7.5-3.364 7.5-7.5 7.5-7.5-3.364-7.5-7.5zm-261.427-137.926h104.999v137.849h-104.999zm394.344 167.357c-1.613 1.607-3.753 2.492-6.026 2.492h-464.997c-4.687 0-8.5-3.813-8.5-8.5 0-2.272.885-4.413 2.474-6.008 1.613-1.607 3.753-2.492 6.026-2.492h328.787c4.125 4.644 10.134 7.577 16.819 7.577s12.695-2.934 16.819-7.577h69.746c4.125 4.644 10.134 7.577 16.819 7.577 6.666 0 12.661-2.917 16.785-7.538 4.323.395 7.722 4.037 7.722 8.46 0 2.273-.885 4.414-2.474 6.009z"/><path d="m419.831 94.257c17.369 0 31.5-14.131 31.5-31.5s-14.131-31.5-31.5-31.5-31.5 14.131-31.5 31.5 14.131 31.5 31.5 31.5zm0-48c9.098 0 16.5 7.402 16.5 16.5s-7.402 16.5-16.5 16.5-16.5-7.402-16.5-16.5 7.402-16.5 16.5-16.5z"/><path d="m419.831 25c4.142 0 7.5-3.357 7.5-7.5v-10c0-4.143-3.358-7.5-7.5-7.5s-7.5 3.357-7.5 7.5v10c0 4.143 3.358 7.5 7.5 7.5z"/><path d="m412.331 108.013v10c0 4.143 3.358 7.5 7.5 7.5s7.5-3.357 7.5-7.5v-10c0-4.143-3.358-7.5-7.5-7.5s-7.5 3.357-7.5 7.5z"/><path d="m451.832 38.255c1.919 0 3.839-.732 5.303-2.196l7.071-7.07c2.929-2.929 2.929-7.678 0-10.606-2.93-2.93-7.678-2.929-10.607-.001l-7.071 7.07c-2.929 2.929-2.929 7.678 0 10.606 1.466 1.464 3.385 2.197 5.304 2.197z"/><path d="m382.527 89.454-7.071 7.07c-2.929 2.929-2.929 7.678 0 10.606 1.465 1.465 3.384 2.197 5.304 2.197 1.919 0 3.839-.732 5.303-2.196l7.071-7.07c2.929-2.929 2.929-7.678 0-10.606-2.93-2.93-7.678-2.929-10.607-.001z"/><path d="m457.588 62.757c0 4.143 3.358 7.5 7.5 7.5h10c4.142 0 7.5-3.357 7.5-7.5s-3.358-7.5-7.5-7.5h-10c-4.142 0-7.5 3.357-7.5 7.5z"/><path d="m364.575 70.257h10c4.142 0 7.5-3.357 7.5-7.5s-3.358-7.5-7.5-7.5h-10c-4.142 0-7.5 3.357-7.5 7.5s3.358 7.5 7.5 7.5z"/><path d="m457.136 89.454c-2.93-2.928-7.677-2.929-10.607.001-2.929 2.929-2.928 7.678 0 10.606l7.071 7.07c1.465 1.464 3.384 2.196 5.303 2.196s3.839-.732 5.304-2.197c2.929-2.929 2.928-7.678 0-10.606z"/><path d="m382.527 36.059c1.465 1.464 3.384 2.196 5.303 2.196s3.839-.732 5.304-2.197c2.929-2.929 2.928-7.678 0-10.606l-7.071-7.07c-2.93-2.928-7.677-2.929-10.607.001-2.929 2.929-2.928 7.678 0 10.606z"/></g></g></svg>