<?xml version="1.0" encoding="iso-8859-1"?>
<!-- Generator: Adobe Illustrator 19.0.0, SVG Export Plug-In . SVG Version: 6.00 Build 0)  -->
<svg xmlns="http://www.w3.org/2000/svg" xmlns:xlink="http://www.w3.org/1999/xlink" version="1.1" id="Layer_1" x="0px" y="0px" viewBox="0 0 508 508" style="enable-background:new 0 0 508 508;" xml:space="preserve" width="512" height="512">
<g>
	<rect x="139.149" y="106" width="229.701" height="19.581"/>
	<rect x="139.149" y="205.161" width="229.701" height="19.581"/>
	<rect x="139.149" y="155.581" width="229.701" height="19.58"/>
	<path d="M140.397,353.904c4.499,17.838,20.675,31.082,39.89,31.082h58.594v26.569c-12.447,5.708-21.118,18.278-21.118,32.844V493   c0,8.284,6.716,15,15,15H275c8.284,0,15-6.716,15-15v-48.601c0-14.566-8.671-27.136-21.119-32.844v-26.569h58.831   c19.215,0,35.391-13.244,39.89-31.082H140.397z"/>
	<path d="M367.603,76c-4.499-17.838-20.675-31.082-39.89-31.082h-58.831V15c0-8.284-6.716-15-15-15s-15,6.716-15,15v29.918h-58.594   c-19.215,0-35.391,13.244-39.89,31.082H367.603z"/>
	<rect x="139.149" y="304.323" width="229.701" height="19.581"/>
	<rect x="139.149" y="254.742" width="229.701" height="19.581"/>
</g>















</svg>
