<?xml version="1.0" encoding="iso-8859-1"?>
<!-- Generator: Adobe Illustrator 19.0.0, SVG Export Plug-In . SVG Version: 6.00 Build 0)  -->
<svg version="1.1" id="Capa_1" xmlns="http://www.w3.org/2000/svg" xmlns:xlink="http://www.w3.org/1999/xlink" x="0px" y="0px"
	 viewBox="0 0 512 512" style="enable-background:new 0 0 512 512;" xml:space="preserve">
<g>
	<g>
		<path d="M144.078,376.998c-12.302,0-22.309,10.009-22.309,22.311s10.008,22.31,22.309,22.31c12.303,0,22.312-10.008,22.312-22.31
			C166.39,387.006,156.381,376.998,144.078,376.998z M144.078,406.619c-4.03,0-7.309-3.279-7.309-7.31
			c0-4.032,3.279-7.311,7.309-7.311c4.031,0,7.312,3.28,7.312,7.311C151.39,403.339,148.109,406.619,144.078,406.619z"/>
	</g>
</g>
<g>
	<g>
		<path d="M506.28,255.693c-3.636-2.858-8.472-3.826-13.27-2.659l-17.783,4.326c-4.025,0.979-6.494,5.036-5.515,9.06
			c0.98,4.025,5.035,6.492,9.06,5.515l17.783-4.326c0.173-0.042,0.31-0.058,0.408-0.061c0.02,0.096,0.036,0.232,0.036,0.411v48.318
			H392.99v-19.37c0-2.034,2.014-4.595,3.989-5.076l46.793-11.382c4.025-0.979,6.494-5.036,5.515-9.06
			c-0.979-4.025-5.033-6.493-9.06-5.515l-22.927,5.577V104.285h26.098c6.893,0,12.5-5.607,12.5-12.5V78.196
			c0-6.893-5.607-12.5-12.5-12.5H390.49c-6.893,0-12.5,5.607-12.5,12.5v218.709v20.917l-51.542,7.833v-8.361h29.314
			c6.893,0,12.5-5.607,12.5-12.5v-13.471c0-6.701-5.304-12.171-11.933-12.471c-0.588-23.043-19.501-41.61-42.684-41.61h-75.451
			c-23.183,0-42.097,18.567-42.685,41.61c-6.628,0.3-11.932,5.77-11.932,12.471v13.471c0,6.893,5.607,12.5,12.5,12.5h29.313v23.718
			l-76.214,11.582c-1.677-0.182-3.377-0.282-5.101-0.282c-25.913,0-46.994,21.083-46.994,46.996c0,6.015,1.148,11.764,3.217,17.055
			v14.94h-7.516v-23.592c0-4.142-3.358-7.5-7.5-7.5c-4.143,0-7.5,3.358-7.5,7.5v23.592h-7.517v-26.809c0-4.142-3.357-7.5-7.5-7.5
			s-7.5,3.358-7.5,7.5v26.809H47.75v-20.252c0-4.142-3.357-7.5-7.5-7.5s-7.5,3.358-7.5,7.5v20.252h-7.516v-32.782
			c0-4.142-3.357-7.5-7.5-7.5s-7.5,3.358-7.5,7.5v32.782H7.5c-4.143,0-7.5,3.358-7.5,7.5c0,4.142,3.357,7.5,7.5,7.5H203
			c4.143,0,7.5-3.358,7.5-7.5c0-4.142-3.357-7.5-7.5-7.5h-24.543c6.4-6.872,10.768-15.656,12.143-25.392h113.686
			c2.216,9.801,7.207,18.559,14.114,25.392H247c-4.143,0-7.5,3.358-7.5,7.5c0,4.142,3.357,7.5,7.5,7.5h257.5
			c4.143,0,7.5-3.358,7.5-7.5c0-4.142-3.357-7.5-7.5-7.5H391.242c6.907-6.833,11.897-15.591,14.113-25.392H494.5
			c9.649,0,17.5-7.851,17.5-17.5v-36.636v-46v-37.818C512,263.02,509.915,258.549,506.28,255.693z M402.302,275.097l-8.867,2.158
			c-0.15,0.037-0.295,0.09-0.444,0.13v-96.978h9.311V275.097z M392.99,80.696h47.908v8.587H392.99V80.696z M392.99,104.285h9.311
			v15.021h-9.311V104.285z M392.99,134.305h9.311v31.104h-9.311V134.305z M198.579,302.294v-8.471h49.42c4.143,0,7.5-3.358,7.5-7.5
			c0-4.142-3.357-7.5-7.5-7.5h-37.488c0.596-14.757,12.782-26.581,27.685-26.581h75.451c14.901,0,27.088,11.824,27.684,26.581H286
			c-4.143,0-7.5,3.358-7.5,7.5c0,4.142,3.357,7.5,7.5,7.5h67.263v8.471H198.579z M311.449,317.294v10.641l-71.056,10.798v-21.439
			H311.449z M144.078,431.304c-17.641,0-31.994-14.353-31.994-31.995c0-17.643,14.353-31.996,31.994-31.996
			c17.643,0,31.995,14.354,31.995,31.996C176.073,416.951,161.721,431.304,144.078,431.304z M303.136,390.912h-112.83
			c-1.941-10.718-7.525-20.176-15.426-27.05l203.11-30.866v15.157c-6.978-3.504-14.844-5.489-23.169-5.489
			C327.449,342.664,304.98,364,303.136,390.912z M354.821,431.304c-20.304,0-36.821-16.517-36.821-36.82
			c0-20.303,16.518-36.82,36.821-36.82c20.303,0,36.819,16.518,36.819,36.82S375.124,431.304,354.821,431.304z M497,388.412
			c0,1.355-1.145,2.5-2.5,2.5h-87.996c-0.827-12.076-5.799-23.028-13.514-31.434v-0.015v-28.188H442v15.5
			c0,6.893,5.607,12.5,12.5,12.5H497V388.412z M497,344.276h-40v-13h40V344.276z"/>
	</g>
</g>
<g>
	<g>
		<path d="M354.821,370.365c-13.3,0-24.12,10.82-24.12,24.12s10.82,24.12,24.12,24.12s24.12-10.82,24.12-24.12
			S368.121,370.365,354.821,370.365z M354.821,403.603c-5.029,0-9.12-4.091-9.12-9.12s4.091-9.12,9.12-9.12s9.12,4.091,9.12,9.12
			C363.941,399.513,359.851,403.603,354.821,403.603z"/>
	</g>
</g>
<g>
	<g>
		<path d="M164.864,317.06c-2.932-2.929-7.681-2.928-10.606,0.001l-4.935,4.936c-2.929,2.93-2.928,7.678,0.001,10.607
			c1.464,1.464,3.383,2.196,5.302,2.196c1.92,0,3.84-0.732,5.304-2.197l4.935-4.936C167.794,324.737,167.793,319.988,164.864,317.06
			z"/>
	</g>
</g>
<g>
	<g>
		<path d="M118.115,330.998c-2.93-2.929-7.679-2.93-10.607-0.001l-4.935,4.935c-2.93,2.929-2.93,7.677-0.001,10.606
			c1.464,1.464,3.383,2.197,5.303,2.197c1.919,0,3.839-0.732,5.303-2.196l4.936-4.935
			C121.044,338.675,121.044,333.927,118.115,330.998z"/>
	</g>
</g>
<g>
	<g>
		<path d="M134.521,297.285c-2.928-2.929-7.677-2.928-10.606,0l-4.936,4.936c-2.929,2.929-2.929,7.678,0.001,10.607
			c1.463,1.465,3.383,2.197,5.302,2.197s3.839-0.732,5.304-2.197l4.936-4.936C137.451,304.964,137.451,300.214,134.521,297.285z"/>
	</g>
</g>
<g>
	<g>
		<path d="M159.032,272.738c-4.143,0-7.5,3.358-7.5,7.5v6.98c0,4.142,3.358,7.5,7.5,7.5c4.143,0,7.5-3.358,7.5-7.5v-6.98
			C166.532,276.096,163.175,272.738,159.032,272.738z"/>
	</g>
</g>
<g>
</g>
<g>
</g>
<g>
</g>
<g>
</g>
<g>
</g>
<g>
</g>
<g>
</g>
<g>
</g>
<g>
</g>
<g>
</g>
<g>
</g>
<g>
</g>
<g>
</g>
<g>
</g>
<g>
</g>
</svg>
