<svg height="60pt" viewBox="-2 0 485 485.088" width="60pt" xmlns="http://www.w3.org/2000/svg"><path d="m40.042969 136h208c4.417969 0 8-3.582031 8-8v-88c0-4.417969-3.582031-8-8-8h-208c-4.417969 0-8 3.582031-8 8v88c0 4.417969 3.582031 8 8 8zm8-88h192v72h-192zm0 0"/><path d="m32.042969 144h280v16h-280zm0 0"/><path d="m32.042969 168h280v16h-280zm0 0"/><path d="m32.042969 192h280v16h-280zm0 0"/><path d="m120.042969 224h-80c-4.417969 0-8 3.582031-8 8v168c0 4.417969 3.582031 8 8 8h80c4.417969 0 8-3.582031 8-8v-168c0-4.417969-3.582031-8-8-8zm-8 168h-64v-152h64zm0 0"/><path d="m472.042969 240h-16l-.09375-112h8.09375v72h16v-80c0-4.417969-3.582031-8-8-8h-16v-40c0-17.671875-14.324219-32-32-32-17.671875 0-32 14.328125-32 32l.105469 168h-40.105469v-168h-.070313c.027344-2.113281-.792968-4.148438-2.273437-5.65625l-64-64c-1.507813-1.476562-3.542969-2.2929688-5.65625-2.265625v-.078125h-272c-4.417969 0-8.0000002 3.582031-8.0000002 8v424c0 4.417969 3.5820312 8 8.0000002 8h128v21.816406c0 22.152344 53.3125 23.273438 64 23.273438s64-1.121094 64-23.273438v-21.816406h8v32c0 4.417969 3.582031 8 8 8h192c4.417969 0 8-3.582031 8-8v-224c0-4.417969-3.582031-8-8-8zm-32 0h-31.886719l-.113281-112h31.890625zm-16-184c8.835937 0 16 7.164062 16 16v40h-32v-40c0-8.835938 7.164062-16 16-16zm40 216h-176v-16h176zm-176-244.6875 36.6875 36.6875h-36.6875zm-136 395.03125c15.5625 4.691406 31.75 6.96875 48 6.746094 16.25.222656 32.441406-2.054688 48-6.746094v12.800781c-3.671875 3.144531-20.558594 8.527344-48 8.527344-27.4375 0-44.328125-5.382813-48-8.527344zm0-30.542969c15.5625 4.691407 31.75 6.964844 48 6.742188 16.25.222656 32.441406-2.050781 48-6.742188v12.757813c-3.664063 3.144531-20.550781 8.53125-48 8.53125-27.445313 0-44.335938-5.386719-48-8.53125zm0-30.542969c15.5625 4.691407 31.75 6.964844 48 6.742188 16.25.222656 32.441406-2.050781 48-6.742188v12.796876c-3.671875 3.152343-20.558594 8.53125-48 8.53125-27.4375 0-44.328125-5.378907-48-8.53125zm0-30.546874c15.5625 4.6875 31.75 6.964843 48 6.746093 16.25.21875 32.441406-2.058593 48-6.746093v12.761718c-3.664063 3.144532-20.550781 8.527344-48 8.527344-27.445313 0-44.335938-5.382812-48-8.527344zm48-9.253907c-15.664063.78125-31.324219-1.703125-45.976563-7.304687 14.671875-5.53125 30.320313-7.996094 45.976563-7.242188 15.660156-.753906 31.308593 1.710938 45.976562 7.242188-14.652343 5.601562-30.308593 8.085937-45.976562 7.304687zm0 147.632813c-27.445313 0-44.335938-5.386719-48-8.53125v-7.664063c15.5625 4.691407 31.75 6.964844 48 6.746094 16.25.21875 32.441406-2.054687 48-6.746094v7.664063c-3.664063 3.144531-20.550781 8.53125-48 8.53125zm64-45.089844v-109.816406c0-22.152344-53.3125-23.273438-64-23.273438s-64 1.121094-64 23.273438v109.816406h-120v-408h256v56c0 4.417969 3.582031 8 8 8h56v160h-56c-4.417969 0-8 3.582031-8 8v176zm24 40v-176h176v176zm0 0"/><path d="m360.042969 384h-48c-4.417969 0-8 3.582031-8 8v48c0 4.417969 3.582031 8 8 8h48c4.417969 0 8-3.582031 8-8v-48c0-4.417969-3.582031-8-8-8zm-8 48h-32v-32h32zm0 0"/><path d="m360.042969 304h-48c-4.417969 0-8 3.582031-8 8v48c0 4.417969 3.582031 8 8 8h48c4.417969 0 8-3.582031 8-8v-48c0-4.417969-3.582031-8-8-8zm-8 48h-32v-32h32zm0 0"/><path d="m440.042969 384h-48c-4.417969 0-8 3.582031-8 8v48c0 4.417969 3.582031 8 8 8h48c4.417969 0 8-3.582031 8-8v-48c0-4.417969-3.582031-8-8-8zm-8 48h-32v-32h32zm0 0"/><path d="m440.042969 304h-48c-4.417969 0-8 3.582031-8 8v48c0 4.417969 3.582031 8 8 8h48c4.417969 0 8-3.582031 8-8v-48c0-4.417969-3.582031-8-8-8zm-8 48h-32v-32h32zm0 0"/><path d="m144.042969 224h112v16h-112zm0 0"/><path d="m144.042969 248h112v16h-112zm0 0"/><path d="m144.042969 272h112v16h-112zm0 0"/></svg>