<?xml version="1.0"?>
<svg xmlns="http://www.w3.org/2000/svg" id="Stroke" viewBox="0 0 340 340" width="512" height="512"><path d="M288.167,194.027a32.775,32.775,0,0,0-7.708-.662v-9.459a9.743,9.743,0,0,0,3.572-7.54V162.483a11.7,11.7,0,0,0,10.589-11.627V134.131a25.066,25.066,0,0,0-25.038-25.038h-69.55a25.066,25.066,0,0,0-25.038,25.038v16.725a11.7,11.7,0,0,0,11.682,11.683h1.276v25.3a3.5,3.5,0,1,0,7,0v-25.3h38.762v13.827a2.761,2.761,0,0,1-2.758,2.757H204.183a3.5,3.5,0,0,0,0,7h41.742a3.5,3.5,0,0,0,0-7h-5.614a9.73,9.73,0,0,0,.4-2.757V173.52h5.211a3.5,3.5,0,0,0,0-7h-5.211v-3.981h15.623v13.827a9.768,9.768,0,0,0,9.757,9.757h7.365v8.212a35.623,35.623,0,0,0-9.95,4.137c-1.139.691-2.423,1.4-3.828,2.111a10.217,10.217,0,0,0-10.088-8.722H209.046a10.216,10.216,0,0,0-10.067,8.586A56.3,56.3,0,0,1,193.235,197c-11.885-8.169-26.324-11.126-39.614-8.11a45.886,45.886,0,0,0-15.887,6.9l-37.281-46.028h40.23a14.6,14.6,0,0,1,14.587,14.587V177.91a3.5,3.5,0,0,0,7,0V164.351a21.605,21.605,0,0,0-18.87-21.4L66.92,52.97a26.806,26.806,0,0,0-20.457-9.46H26.032c-9.219,0-17.185,4.6-20.79,12.015C1.905,62.387,2.938,70.338,8,76.792l51.784,65.972H43.142a21.611,21.611,0,0,0-21.587,21.587V187.6H17.73a9.363,9.363,0,0,0-9.352,9.353v8.488a9.363,9.363,0,0,0,9.352,9.352h3.825v29.322A21.611,21.611,0,0,0,43.142,265.7h14.99a3.5,3.5,0,1,0,0-7H43.142a14.6,14.6,0,0,1-14.587-14.587V214.791H95.583a3.5,3.5,0,1,0,0-7H17.73a2.355,2.355,0,0,1-2.352-2.352v-8.488A2.356,2.356,0,0,1,17.73,194.6h82.744l15.879,20.231a41.071,41.071,0,1,0,34.8,40.592,40.8,40.8,0,0,0-5.617-20.694,14.446,14.446,0,0,0,5.588-22.4l-8.967-11.071a38.984,38.984,0,0,1,13.009-5.542c11.391-2.586,23.819-.014,34.1,7.052,7.783,5.349,20.973,11.725,39.616,11.725,17.932,0,30.7-5.457,38.251-10.035a27.157,27.157,0,0,1,19.607-3.578c34.588,7.176,42.442,34.907,42.94,56.907a14.506,14.506,0,0,1-9.424,13.941,3.5,3.5,0,1,0,2.433,6.563,21.5,21.5,0,0,0,13.989-20.663C336.229,237.541,329.32,202.565,288.167,194.027ZM94.784,142.764,34.323,68.119c1.33-1.83,4.485-1.907,4.5-1.908h6.805a11.665,11.665,0,0,1,9.02,4.247L114.4,142.764ZM33.659,50.51h12.8A19.815,19.815,0,0,1,61.586,57.5l72.466,85.26H123.48L60.042,66a18.64,18.64,0,0,0-14.416-6.788h-6.8A13.9,13.9,0,0,0,30.573,62a15.607,15.607,0,0,1-.812-3.166C29.4,56.331,30.9,52.5,33.659,50.51ZM28.555,187.6V164.351a14.6,14.6,0,0,1,14.587-14.587h22.14L94.98,187.6ZM110.089,289.49a34.07,34.07,0,1,1,34.069-34.069A34.107,34.107,0,0,1,110.089,289.49Zm35.6-72.754a7.428,7.428,0,0,1-4.421,12,41.326,41.326,0,0,0-13.1-10.176c-.013-.016-.02-.035-.032-.05L13.51,72.47c-3.424-4.361-4.143-9.422-1.973-13.884,2.253-4.633,7.215-7.634,13.142-8.031a15.889,15.889,0,0,0-1.846,9.288,24.18,24.18,0,0,0,5.239,11.68ZM252.8,203.519a70.637,70.637,0,0,1-23.915,3.975,65.756,65.756,0,0,1-23.05-4V202.07a3.213,3.213,0,0,1,3.209-3.209h40.547a3.213,3.213,0,0,1,3.209,3.209Zm-66.126-47.98a4.688,4.688,0,0,1-4.682-4.683V134.131a18.058,18.058,0,0,1,18.038-18.038h69.55a18.058,18.058,0,0,1,18.038,18.038v16.725a4.688,4.688,0,0,1-4.682,4.683Zm90.355,20.827a2.76,2.76,0,0,1-2.757,2.757h-8.18a2.76,2.76,0,0,1-2.757-2.757V162.539h13.694Z"/><path d="M152.787,276.123a3.5,3.5,0,0,0,3.5,3.5h87.52a40.987,40.987,0,1,0-4.127-7H156.287A3.5,3.5,0,0,0,152.787,276.123Zm124.172-54.772a34.07,34.07,0,1,1-34.069,34.07A34.108,34.108,0,0,1,276.959,221.351Z"/><path d="M276.959,276.043a20.623,20.623,0,1,0-20.622-20.622A20.645,20.645,0,0,0,276.959,276.043Zm0-34.245a13.623,13.623,0,1,1-13.622,13.623A13.637,13.637,0,0,1,276.959,241.8Z"/><path d="M110.089,234.8a20.623,20.623,0,1,0,20.622,20.623A20.646,20.646,0,0,0,110.089,234.8Zm0,34.245a13.623,13.623,0,1,1,13.622-13.622A13.638,13.638,0,0,1,110.089,269.043Z"/><path d="M134.631,218.579a3.9,3.9,0,1,0-3.9-3.9A3.9,3.9,0,0,0,134.631,218.579Z"/></svg>
