<svg height="512" viewBox="0 0 512 512" width="512" xmlns="http://www.w3.org/2000/svg"><g id="filled_outline" data-name="filled outline"><path d="m16 16h480v296h-480z" fill="#f9f9f9"/><path d="m496 264v232h-480v-256h44.53a136.167 136.167 0 0 1 115.47 64l13.56-13.56a90.268 90.268 0 0 1 63.83-26.44z" fill="#a1b665"/><path d="m496 272v224h-480v-248h44.53a136.167 136.167 0 0 1 115.47 64l13.56-13.56a90.268 90.268 0 0 1 63.83-26.44z" fill="#aac16b"/><rect fill="#a45e14" height="32" rx="16" width="176" x="128" y="368"/><path d="m120 464h16v32h-16z" fill="#70400e"/><path d="m152 456h16v40h-16z" fill="#70400e"/><path d="m264 456h16v40h-16z" fill="#70400e"/><path d="m296 464h16v32h-16z" fill="#70400e"/><path d="m152 368h16v72h-16z" fill="#a8a8a8"/><path d="m264 368h16v72h-16z" fill="#a8a8a8"/><path d="m477.762 224.262a55.971 55.971 0 0 0 -27.139-19.913c14.05-32.9 11.249-66.912-10.147-86.133-10.96-9.846-25.261-14.416-40.8-14.2.2-2.634.32-5.308.32-8.02 0-39.765-22.616-72-50.514-72s-50.514 32.235-50.514 72a98.7 98.7 0 0 0 4.015 28.169c-11.26 3.923-20.847 10.606-27.662 20.093-14.246 19.833-13.118 47.211.259 72.85a52.862 52.862 0 0 0 -9.346 9.945c-23.2 32.3-5.642 84.6 39.213 116.818 38.123 27.384 83.682 31.433 110.743 12.207 4.655-3.306 9.333-6.575 14.195-9.569q4.126-2.541 8.16-5.433c44.855-32.217 62.415-84.518 39.217-116.814z" fill="#85bc94"/><path d="m360.3 496a8 8 0 0 1 -8-8v-376a8 8 0 0 1 16 0v376a8 8 0 0 1 -8 8z" fill="#5b3726"/><path d="m360.308 280a8 8 0 0 1 -5.21-14.074 152.188 152.188 0 0 0 53.202-115.682v-6.244a8 8 0 0 1 16 0v6.244a168.168 168.168 0 0 1 -58.794 127.83 7.969 7.969 0 0 1 -5.198 1.926z" fill="#5b3726"/><path d="m360.3 232a7.964 7.964 0 0 1 -4.793-1.6 88.419 88.419 0 0 1 -35.207-70.4 8 8 0 0 1 16 0 72.343 72.343 0 0 0 28.8 57.6 8 8 0 0 1 -4.8 14.4z" fill="#5b3726"/><path d="m328.3 320a7.974 7.974 0 0 1 -5.657-2.343l-9.373-9.373a84.7 84.7 0 0 1 -24.97-60.284 8 8 0 0 1 16 0 68.8 68.8 0 0 0 20.284 48.971l9.372 9.372a8 8 0 0 1 -5.656 13.657z" fill="#6b9777"/><circle cx="200" cy="88" fill="#fd9226" r="32"/><g fill="#fbd699"><path d="m192 16h16v16h-16z"/><path d="m146.745 34.745h16v16h-16z" transform="matrix(.707 -.707 .707 .707 15.098 121.941)"/><path d="m192 144h16v16h-16z"/><path d="m237.255 125.255h16v16h-16z" transform="matrix(.707 -.707 .707 .707 -22.392 212.451)"/><path d="m256 80h16v16h-16z"/><path d="m237.255 34.745h16v16h-16z" transform="matrix(.707 -.707 .707 .707 41.608 185.941)"/></g><path d="m167.051 96.257a32 32 0 0 0 -62.1 0 19.986 19.986 0 0 0 -16.951 19.743 20 20 0 0 0 20 20h56a20 20 0 0 0 20-20 19.986 19.986 0 0 0 -16.949-19.743z" fill="#ebebeb"/><path d="m80 280-8 8-8-8-8-32v-8h32v8z" fill="#3775a4"/><path d="m104 200-16 48h-32l-16-48z" fill="#fbd699"/><path d="m96 200-16 48h-24l-16-48z" fill="#fbb540"/><path d="m80 168v-16a8 8 0 0 0 -16 0v16l-24 32h64z" fill="#277baa"/><path d="m112 208h-80a8 8 0 0 1 0-16h80a8 8 0 0 1 0 16z" fill="#428dc5"/><path d="m320 464h-208v-16a16 16 0 0 1 16-16h176a16 16 0 0 1 16 16z" fill="#a45e14"/><path d="m120 464h16v8h-16z" fill="#533222"/><path d="m152 464h16v8h-16z" fill="#533222"/><path d="m264 464h16v8h-16z" fill="#533222"/><path d="m296 464h16v8h-16z" fill="#533222"/><path d="m152 424h16v8h-16z" fill="#787d82"/><path d="m264 424h16v8h-16z" fill="#787d82"/><path d="m488 440h-144a8 8 0 0 1 0-16h144a8 8 0 0 1 0 16z" fill="#744630"/><path d="m488 472h-136a8 8 0 0 1 0-16h136a8 8 0 0 1 0 16z" fill="#744630"/><path d="m392 496a8 8 0 0 1 -8-8v-88a8 8 0 0 1 16 0v88a8 8 0 0 1 -8 8z" fill="#8f563b"/><path d="m424 496a8 8 0 0 1 -8-8v-88a8 8 0 0 1 16 0v88a8 8 0 0 1 -8 8z" fill="#8f563b"/><path d="m456 496a8 8 0 0 1 -8-8v-88a8 8 0 0 1 16 0v88a8 8 0 0 1 -8 8z" fill="#8f563b"/><path d="m488 496a8 8 0 0 1 -8-8v-88a8 8 0 0 1 16 0v88a8 8 0 0 1 -8 8z" fill="#8f563b"/><path d="m360 456-8 40h-24l-8-40z" fill="#ea9d2d"/><path d="m352 456-8 40h-16l-8-40z" fill="#fbb540"/><path d="m64 288h16v144h-16z" fill="#a8a8a8"/><path d="m80 320h-16v-16a16.019 16.019 0 0 0 -16-16 8 8 0 0 0 0 16h8v16h-8a24 24 0 0 1 0-48 32.036 32.036 0 0 1 32 32z" fill="#c3c3c3"/><path d="m96 320h-8v-16h8a8 8 0 0 0 0-16 16.019 16.019 0 0 0 -16 16v16h-16v-16a32.036 32.036 0 0 1 32-32 24 24 0 0 1 0 48z" fill="#c3c3c3"/><path d="m112 360-16 16h-56v-32h56z" fill="#834b10"/><path d="m104 360-16 16h-48v-32h48z" fill="#a45e14"/><path d="m88 496h-32v-56a16 16 0 0 1 16-16 16 16 0 0 1 16 16z" fill="#4799cf"/><path d="m375.421 375.988c17.149 0 33.056-4.394 45.71-13.384 4.13-2.934 8.939-6.312 13.756-9.279 2.932-1.805 5.837-3.739 8.633-5.748 23.045-16.554 40.107-38.691 48.043-62.332 8.248-24.569 5.762-47.884-7-65.65a62.871 62.871 0 0 0 -23.369-19.57c12.17-34.5 6.564-68.327-15.068-87.76-10.2-9.165-23.152-14.6-37.823-15.929 0-.112 0-.224 0-.336 0-20.861-5.77-40.574-16.246-55.506-11.081-15.794-26.092-24.494-42.267-24.494s-31.19 8.7-42.268 24.494c-10.477 14.932-16.246 34.645-16.246 55.506a108.14 108.14 0 0 0 2.519 23.408 63.056 63.056 0 0 0 -24.664 20.192c-14.512 20.2-15.539 48.127-3.048 75.653a60.067 60.067 0 0 0 -6.039 7.142 63.3 63.3 0 0 0 -11.654 33.735 97.563 97.563 0 0 0 -64.49 28.653l-6.7 6.7a145.428 145.428 0 0 0 -75.291-53.414l15.035-30.069h3.056a8 8 0 0 0 0-16h-4.687l-29.656-29.657a8 8 0 0 0 -5.657-2.343v-8a8 8 0 0 0 -16 0v8a8 8 0 0 0 -5.657 2.343l-29.656 29.657h-4.687a8 8 0 0 0 0 16h3.056l12 24h-23.056v16h31.056l1.4 2.791 5.441 21.762a32.052 32.052 0 0 0 -5.897-.553 24 24 0 0 0 0 48h8v-16h-8a8 8 0 0 1 0-16 16.019 16.019 0 0 1 16 16v32h-24a8 8 0 0 0 -8 8v32a8 8 0 0 0 8 8h24v33.376a24.039 24.039 0 0 0 -16 22.624v48a8 8 0 0 0 8 8h32a8 8 0 0 0 8-8v-48a24.039 24.039 0 0 0 -16-22.624v-33.376h16a8 8 0 0 0 5.657-2.343l16-16a8 8 0 0 0 0-11.314l-16-16a8 8 0 0 0 -5.657-2.343h-16v-32a16.019 16.019 0 0 1 16-16 8 8 0 0 1 0 16h-8v16h8a24 24 0 0 0 0-48 32.052 32.052 0 0 0 -5.892.553l4.953-19.81a129.066 129.066 0 0 1 74.154 55.5 8 8 0 0 0 5.879 3.71 8.119 8.119 0 0 0 .906.047 8 8 0 0 0 5.657-2.343l13.56-13.56a81.669 81.669 0 0 1 53.947-23.988 93.735 93.735 0 0 0 3.88 15.931c7.936 23.642 25 45.778 48.044 62.332a137.991 137.991 0 0 0 51.212 23.095v50.533h-8.3a8 8 0 0 0 0 16h8.3v8h-24.3a24.028 24.028 0 0 0 -24-24h-24v-16h8a24 24 0 0 0 0-48h-144a24 24 0 0 0 0 48h8v16h-24a24.028 24.028 0 0 0 -24 24v16a8 8 0 0 0 8 8h8v24h16v-24h16v24h16v-24h96v24h16v-24h16v24h16v-24h3.754l4.485 17.94a8 8 0 0 0 7.761 6.06h24a7.973 7.973 0 0 0 4.153-1.17 7.989 7.989 0 0 0 12.147-6.83v-16h15.7v16a8 8 0 0 0 16 0v-16h16v16a8 8 0 0 0 16 0v-16h16v16a8 8 0 0 0 16 0v-16h16v16a8 8 0 0 0 16 0v-88a8 8 0 0 0 -16 0v24h-16v-24a8 8 0 0 0 -16 0v24h-16v-24a8 8 0 0 0 -16 0v24h-16v-24a8 8 0 0 0 -16 0v24h-15.7v-48.284c2.394.164 4.772.272 7.121.272zm-295.421 104.012h-16v-40a8 8 0 0 1 16 0zm-32-112v-16h16v16zm44.687-16 8 8-8 8h-12.687v-16zm-22.441-80-4-16h11.508l-4 16zm12.81-32h-22.112l-16-32h54.112zm-15.743-64h9.374l16 16h-41.374zm228.687 208a8.009 8.009 0 0 1 -8 8h-8v-16h8a8.009 8.009 0 0 1 8 8zm-32 8h-96v-16h96zm-120 0a8 8 0 0 1 0-16h8v16zm24 16h96v16h-96zm144 48h-192v-8a8.009 8.009 0 0 1 8-8h176a8.009 8.009 0 0 1 8 8zm33.754 24h-11.508l-4-16h19.508zm134.246-40v16h-16v-16zm-32 0v16h-16v-16zm-32 0v16h-16v-16zm-32 0v16h-15.7v-16zm-73.578-102.623c-20.342-14.612-35.333-33.942-42.21-54.429-6.565-19.558-4.851-37.75 4.827-51.223a45 45 0 0 1 7.939-8.441 8 8 0 0 0 2-9.873c-12.428-23.819-12.748-47.925-.855-64.481 5.668-7.89 13.674-13.68 23.8-17.206a8 8 0 0 0 5.034-9.843 90.384 90.384 0 0 1 -3.681-25.881c0-17.6 4.739-34.052 13.344-46.317 8-11.403 18.359-17.683 29.17-17.683s21.169 6.28 29.169 17.683c8.606 12.265 13.341 28.717 13.341 46.317 0 2.394-.1 4.883-.3 7.4a8 8 0 0 0 8.09 8.62c14.013-.193 26.267 4 35.336 12.147 18.016 16.186 21.21 46.425 8.136 77.04a8 8 0 0 0 4.663 10.674c9.9 3.542 17.753 9.278 23.335 17.048 20.588 28.662 3.818 76.057-37.383 105.654-2.49 1.788-5.077 3.51-7.687 5.118-5.231 3.221-10.3 6.778-14.633 9.86-11.158 7.927-26.561 11.486-43.561 10.128v-84.076a168.153 168.153 0 0 0 56-125.369v-6.244a8 8 0 0 0 -16 0v6.244a152.154 152.154 0 0 1 -40 102.89v-141.134a8 8 0 0 0 -16 0v93.205a72.352 72.352 0 0 1 -15.996-45.205 8 8 0 0 0 -16 0 88.451 88.451 0 0 0 32 67.868v129.179a124 124 0 0 1 -41.878-19.67z"/><path d="m324.588 296.971a68.8 68.8 0 0 1 -20.288-48.971 8 8 0 0 0 -16 0 84.7 84.7 0 0 0 24.97 60.284l9.373 9.373a8 8 0 1 0 11.313-11.314z"/><path d="m192 16h16v16h-16z"/><path d="m146.745 34.745h16v16h-16z" transform="matrix(.707 -.707 .707 .707 15.098 121.941)"/><path d="m192 144h16v16h-16z"/><path d="m237.255 125.255h16v16h-16z" transform="matrix(.707 -.707 .707 .707 -22.392 212.451)"/><path d="m256 80h16v16h-16z"/><path d="m237.255 34.745h16v16h-16z" transform="matrix(.707 -.707 .707 .707 41.608 185.941)"/><path d="m108 144h56a28.038 28.038 0 0 0 25.873-17.307 40 40 0 1 0 -27.351-52.661 40.036 40.036 0 0 0 -63.852 15.574 28 28 0 0 0 9.33 54.394zm92-80a24 24 0 1 1 -8.571 46.412 27.716 27.716 0 0 0 -15.256-19.612 24.366 24.366 0 0 1 -.173-2.8 24.028 24.028 0 0 1 24-24zm-93.837 40.164a8 8 0 0 0 6.549-5.977 24 24 0 0 1 46.576 0 8 8 0 0 0 6.549 5.977 11.988 11.988 0 0 1 -1.837 23.836h-56a11.988 11.988 0 0 1 -1.837-23.836z"/></g></svg>