<?xml version="1.0"?>
<svg xmlns="http://www.w3.org/2000/svg" height="512px" viewBox="0 -48 512 511" width="512px" class=""><g><path d="m512 50.113281v361.101563c0 2.917968-2.363281 5.273437-5.269531 5.273437h-501.460938c-2.90625 0-5.269531-2.355469-5.269531-5.273437v-205.398438c0-3.304687 2.675781-5.96875 5.96875-5.96875h94.1875c17.359375 0 34.523438-2.761718 50.960938-8.09375 16.433593-5.332031 32.140624-13.25 46.585937-23.582031 28.894531-20.640625 62.839844-31.660156 97.5625-31.660156h31.464844c37.046875 0 73.148437-12.542969 103.144531-35.839844l72.542969-55.296875c3.925781-3 9.582031-.195312 9.582031 4.738281zm0 0" fill="#c0694e" data-original="#C0694E" style="fill:#C0694E" class=""/><path d="m512 164.75v51.722656l-82.125 62.617188c-29.996094 23.289062-66.097656 35.828125-103.144531 35.828125h-31.464844c-17.363281 0-34.527344 2.761719-50.972656 8.09375-16.433594 5.332031-32.140625 13.246093-46.589844 23.578125-28.878906 20.644531-62.824219 31.664062-97.546875 31.664062h-100.15625v-57.804687c0-3.300781 2.675781-5.96875 5.96875-5.96875h94.1875c17.359375 0 34.523438-2.761719 50.960938-8.09375 16.433593-5.332031 32.140624-13.246094 46.585937-23.578125 28.894531-20.644532 62.839844-31.664063 97.5625-31.664063h31.464844c37.046875 0 73.148437-12.539062 103.144531-35.839843l72.542969-55.296876c3.925781-2.996093 9.582031-.195312 9.582031 4.742188zm0 0" fill="#ae583e" data-original="#AE583E" class="" style="fill:#AE583E"/><path d="m512 107.761719v51.722656l-82.125 62.617187c-29.996094 23.289063-66.097656 35.828126-103.144531 35.828126h-31.464844c-17.363281 0-34.527344 2.761718-50.972656 8.09375-16.433594 5.332031-32.140625 13.25-46.589844 23.582031-28.878906 20.640625-62.824219 31.660156-97.546875 31.660156h-100.15625v-57.804687c0-3.300782 2.675781-5.96875 5.96875-5.96875h94.1875c17.359375 0 34.523438-2.757813 50.960938-8.089844 16.433593-5.335938 32.140624-13.25 46.585937-23.582032 28.894531-20.644531 62.839844-31.664062 97.5625-31.664062h31.464844c37.046875 0 73.148437-12.539062 103.144531-35.839844l72.542969-55.292968c3.925781-3 9.582031-.199219 9.582031 4.738281zm0 0" fill="#954c35" data-original="#954C35" class="" style="fill:#954C35"/><path d="m415.234375 66.25c-1.175781-4.152344-5.492187-6.5625-9.644531-5.386719-.476563.132813-11.746094 3.402344-22.867188 13.105469-2.257812 1.96875-4.613281 4.296875-6.910156 7.019531v-72.675781c0-4.316406-3.496094-7.8125-7.8125-7.8125s-7.8125 3.496094-7.8125 7.8125v72.675781c-2.296875-2.722656-4.652344-5.050781-6.910156-7.019531-11.121094-9.703125-22.390625-12.972656-22.863282-13.105469-4.152343-1.175781-8.472656 1.234375-9.648437 5.386719-1.175781 4.148438 1.238281 8.46875 5.386719 9.644531.339844.097657 34.019531 10.105469 34.035156 50.503907 0 .464843-.003906 7.152343-.007812 7.488281-.054688 3.554687 2.28125 6.585937 5.515624 7.578125 5.074219 1.570312 10.203126-2.292969 10.125-7.578125-.007812-.34375-.007812-7.054688-.007812-7.394531v-.09375c.011719-39.976563 32.585938-50.078126 34.0625-50.511719 4.136719-1.191407 6.53125-5.496094 5.359375-9.636719zm0 0" fill="#24d3b5" data-original="#24D3B5" class="active-path" style="fill:#009933" data-old_color="#24d3b5"/><path d="m181.585938 121.203125c-.472657.136719-11.742188 3.40625-22.863282 13.105469-2.257812 1.972656-4.613281 4.300781-6.910156 7.023437v-72.679687c0-4.3125-3.5-7.8125-7.8125-7.8125-4.316406 0-7.8125 3.5-7.8125 7.8125v72.679687c-2.296875-2.722656-4.652344-5.054687-6.914062-7.023437-11.121094-9.699219-22.386719-12.96875-22.863282-13.105469-4.132812-1.167969-8.421875 1.226563-9.613281 5.355469-1.195313 4.132812 1.195313 8.453125 5.320313 9.667968 1.390624.410157 34.070312 10.480469 34.070312 50.535157 0 .367187-.003906 7.101562-.007812 7.476562-.050782 3.503907 2.230468 6.582031 5.589843 7.589844 5.050781 1.496094 10.128907-2.324219 10.046875-7.601563-.003906-.367187-.007812-7.097656-.007812-7.460937 0-40.007813 32.597656-50.105469 34.066406-50.539063 4.132812-1.1875 6.527344-5.496093 5.355469-9.632812-1.171875-4.15625-5.492188-6.5625-9.644531-5.390625zm0 0" fill="#24d3b5" data-original="#24D3B5" class="active-path" style="fill:#009933" data-old_color="#24d3b5"/><g fill="#7c3f2c"><path d="m512 50.113281v51.722657l-82.125 62.617187c-29.996094 23.289063-66.097656 35.832031-103.144531 35.832031h-31.464844c-17.363281 0-34.527344 2.757813-50.972656 8.089844-16.433594 5.335938-32.140625 13.25-46.589844 23.582031-28.878906 20.644531-62.824219 31.664063-97.546875 31.664063h-100.15625v-57.804688c0-3.304687 2.675781-5.96875 5.96875-5.96875h94.1875c17.359375 0 34.523438-2.761718 50.960938-8.09375 16.433593-5.332031 32.140624-13.25 46.585937-23.582031 28.894531-20.640625 62.839844-31.660156 97.5625-31.660156h31.464844c37.046875 0 73.148437-12.542969 103.144531-35.839844l72.542969-55.296875c3.925781-3 9.582031-.195312 9.582031 4.738281zm0 0" data-original="#7C3F2C" class="" style="fill:#7C3F2C" data-old_color="#7C3F2C"/><path d="m468.820312 219.5c0 6.710938-5.4375 12.152344-12.148437 12.152344s-12.152344-5.441406-12.152344-12.152344 5.441407-12.148438 12.152344-12.148438 12.148437 5.4375 12.148437 12.148438zm0 0" data-original="#7C3F2C" class="" style="fill:#7C3F2C" data-old_color="#7C3F2C"/><path d="m416.050781 294.492188c0 6.710937-5.441406 12.152343-12.152343 12.152343-6.710938 0-12.152344-5.441406-12.152344-12.152343 0-6.710938 5.441406-12.152344 12.152344-12.152344 6.710937 0 12.152343 5.441406 12.152343 12.152344zm0 0" data-original="#7C3F2C" class="" style="fill:#7C3F2C" data-old_color="#7C3F2C"/><path d="m345.921875 263.625c0 6.710938-5.441406 12.152344-12.152344 12.152344-6.710937 0-12.152343-5.441406-12.152343-12.152344s5.441406-12.152344 12.152343-12.152344c6.710938 0 12.152344 5.441406 12.152344 12.152344zm0 0" data-original="#7C3F2C" class="" style="fill:#7C3F2C" data-old_color="#7C3F2C"/><path d="m294.191406 350.765625c0 6.710937-5.441406 12.152344-12.152344 12.152344-6.710937 0-12.152343-5.441407-12.152343-12.152344s5.441406-12.152344 12.152343-12.152344c6.710938 0 12.152344 5.441407 12.152344 12.152344zm0 0" data-original="#7C3F2C" class="" style="fill:#7C3F2C" data-old_color="#7C3F2C"/><path d="m98.726562 310.476562c0 6.710938-5.441406 12.152344-12.152343 12.152344-6.710938 0-12.148438-5.441406-12.148438-12.152344 0-6.710937 5.4375-12.152343 12.148438-12.152343 6.710937 0 12.152343 5.441406 12.152343 12.152343zm0 0" data-original="#7C3F2C" class="" style="fill:#7C3F2C" data-old_color="#7C3F2C"/><path d="m165.039062 378.90625c0 6.710938-5.441406 12.148438-12.152343 12.148438-6.710938 0-12.152344-5.4375-12.152344-12.148438s5.441406-12.152344 12.152344-12.152344c6.710937 0 12.152343 5.441406 12.152343 12.152344zm0 0" data-original="#7C3F2C" class="" style="fill:#7C3F2C" data-old_color="#7C3F2C"/><path d="m210.519531 298.328125c0 6.710937-5.441406 12.152344-12.152343 12.152344-6.710938 0-12.148438-5.441407-12.148438-12.152344s5.4375-12.152344 12.148438-12.152344c6.710937 0 12.152343 5.441407 12.152343 12.152344zm0 0" data-original="#7C3F2C" class="" style="fill:#7C3F2C" data-old_color="#7C3F2C"/><path d="m62.273438 366.753906c0 6.710938-5.441407 12.152344-12.152344 12.152344-6.710938 0-12.152344-5.441406-12.152344-12.152344 0-6.710937 5.441406-12.152344 12.152344-12.152344 6.710937 0 12.152344 5.441407 12.152344 12.152344zm0 0" data-original="#7C3F2C" class="" style="fill:#7C3F2C" data-old_color="#7C3F2C"/><path d="m463.265625 375.070312c0 6.710938-5.441406 12.152344-12.152344 12.152344-6.710937 0-12.148437-5.441406-12.148437-12.152344 0-6.710937 5.4375-12.152343 12.148437-12.152343 6.710938 0 12.152344 5.441406 12.152344 12.152343zm0 0" data-original="#7C3F2C" class="" style="fill:#7C3F2C" data-old_color="#7C3F2C"/></g></g> </svg>
