<?xml version="1.0"?>
<svg xmlns="http://www.w3.org/2000/svg" id="Capa_1" enable-background="new 0 0 512 512" height="512px" viewBox="0 0 512 512" width="512px"><g><g><g><g><path d="m512 13.236c0-7.298-5.937-13.236-13.236-13.236h-216.726c-2.057 0-3.998.485-5.737 1.326-1.738-.841-3.679-1.326-5.737-1.326h-216.725c-7.299 0-13.237 5.938-13.237 13.236v216.726c0 7.299 5.938 13.237 13.237 13.237h214.962v214.962c0 7.299 5.938 13.237 13.236 13.237h151.134c4.143 0 7.5-3.358 7.5-7.5s-3.357-7.5-7.5-7.5h-20.505l36.863-36.863 36.863 36.863h-20.231c-4.143 0-7.5 3.358-7.5 7.5s3.357 7.5 7.5 7.5h32.602c7.299 0 13.236-5.938 13.236-13.237v-216.726c0-2.057-.485-3.998-1.326-5.736.841-1.738 1.326-3.68 1.326-5.737v-216.726zm-15 109.415-47.47 47.47-48.522-48.522 48.522-48.522 46.425 46.425c.326.326.678.61 1.045.864zm-58.077 58.077-47.47 47.47h-2.104l-47.47-47.47 48.522-48.522zm10.607 10.607 36.863 36.863h-73.727zm-81.395 36.864h-73.727l36.863-36.863zm-36.863-58.078-46.425-46.425c-.326-.326-.678-.61-1.045-.864v-2.285l47.47-47.47 48.522 48.522zm-47.47-70.788v-73.726l36.863 36.863zm-15 .001-36.864-36.864 36.864-36.864zm0 21.214v2.103l-47.471 47.471-48.522-48.522 48.522-48.522zm0 23.316v19.974c0 4.142 3.357 7.5 7.5 7.5s7.5-3.358 7.5-7.5v-19.973l36.863 36.863-36.863 36.863v-20.763c0-4.142-3.357-7.5-7.5-7.5s-7.5 3.358-7.5 7.5v20.763l-36.864-36.864zm15 109.942 36.863 36.863-36.863 36.863zm10.607-10.607h73.726l-36.863 36.863zm191.984 0-36.863 36.863-36.863-36.863zm10.607 10.606v73.727l-36.863-36.863zm-36.863-73.077 36.863-36.863v73.727zm36.863-81.395-36.863-36.863 36.863-36.863zm-47.47-47.47-36.863-36.863h73.726zm-58.077-36.863 47.47 47.47-48.522 48.522-48.522-48.522 47.47-47.47zm-60.181 36.863-36.863-36.863h73.727zm-109.941 0-36.864-36.863h73.727zm-58.077-36.863 47.47 47.47-48.522 48.522-48.523-48.522 47.471-47.47zm-107.651 105.547 47.47-47.47 48.522 48.522-48.522 48.523-47.47-47.47zm47.47-68.683-36.864-36.864h73.728zm-10.607 10.606-36.863 36.864v-73.728zm-36.863 81.394 36.864 36.864-36.864 36.864zm47.47 47.471 36.864 36.864h-73.728zm58.077 36.864-47.47-47.47 48.523-48.522 48.522 48.522-47.47 47.47zm60.181-36.864 36.864 36.864h-73.728zm62.471 254.455v-73.727l36.863 36.863zm47.47-26.256 36.863 36.863h-73.727zm-46.425-67.639c-.326-.326-.678-.61-1.045-.864v-2.285l47.47-47.47 48.522 48.522-48.522 48.522zm57.032-61.226 47.47-47.47h2.104l47.47 47.47-48.522 48.522zm107.651 10.607 47.47 47.47v2.104l-47.47 47.47-48.522-48.522zm-58.077 155.121h-2.119c-.049-.052-.092-.108-.143-.159l-47.312-47.312 48.522-48.522 48.522 48.522zm105.547-84.333v73.727l-36.863-36.863z" data-original="#000000" class="active-path" data-old_color="#000000" fill="#7C3F2C"/><path d="m229.962 268.801h-32.467c-4.142 0-7.5 3.358-7.5 7.5s3.358 7.5 7.5 7.5h20.097l-36.864 36.864-36.864-36.864h20.64c4.142 0 7.5-3.358 7.5-7.5s-3.358-7.5-7.5-7.5h-151.268c-7.298 0-13.236 5.938-13.236 13.237v216.726c0 7.298 5.938 13.236 13.236 13.236h216.726c7.299 0 13.237-5.938 13.237-13.236v-216.726c0-7.299-5.938-13.237-13.237-13.237zm-178.098 62.471-36.864 36.863v-73.728zm-26.258-47.471h73.728l-36.864 36.864zm-10.606 105.547 47.47-47.47 48.523 48.523-48.523 48.522-47.47-47.47zm0 23.318 36.864 36.864-36.864 36.864zm47.47 47.47 36.864 36.864h-73.728zm58.077 36.864-47.47-47.47 48.523-48.523 48.523 48.523-47.471 47.47zm107.652-105.547-47.47 47.47-48.523-48.523 48.523-48.523 47.47 47.47zm-47.471 68.683 36.864 36.864h-73.727zm10.607-10.606 36.864-36.864v73.728zm36.864-155.122v73.728l-36.864-36.864zm-58.077 36.863-48.523 48.523-48.523-48.523 47.47-47.47h2.105z" data-original="#000000" class="active-path" data-old_color="#000000" fill="#7C3F2C"/></g></g></g></g> </svg>
