<?xml version="1.0"?>
<svg xmlns="http://www.w3.org/2000/svg" id="Layer_1" data-name="Layer 1" viewBox="0 0 24 24" width="512px" height="512px" class=""><g><path d="M16.31,12.68a.5.5,0,0,0-.45-.28.51.51,0,0,0-.45.28L14.79,14l-1.41.21a.5.5,0,0,0-.4.34.49.49,0,0,0,.13.51l1,1-.24,1.39a.5.5,0,0,0,.73.53l1.25-.66,1.25.66a.49.49,0,0,0,.53,0,.51.51,0,0,0,.2-.49L17.6,16l1-1a.49.49,0,0,0,.13-.51.5.5,0,0,0-.4-.34L16.94,14Zm.4,2.78a.53.53,0,0,0-.14.45l.11.65-.59-.31a.55.55,0,0,0-.46,0l-.59.31.11-.65a.5.5,0,0,0-.14-.45L14.53,15l.66-.1a.5.5,0,0,0,.38-.27l.29-.6.3.6a.47.47,0,0,0,.37.27l.66.1Z" data-original="#000000" class="active-path" data-old_color="#000000" fill="#009933"/><path d="M8.08,12.68a.52.52,0,0,0-.9,0L6.56,14l-1.41.21a.5.5,0,0,0-.4.34.49.49,0,0,0,.13.51l1,1-.24,1.39a.5.5,0,0,0,.73.53l1.25-.66,1.25.66a.49.49,0,0,0,.53,0,.51.51,0,0,0,.2-.49L9.37,16l1-1a.49.49,0,0,0,.13-.51.5.5,0,0,0-.4-.34L8.71,14Zm.4,2.78a.53.53,0,0,0-.14.45l.11.65-.59-.31a.55.55,0,0,0-.46,0l-.59.31.11-.65a.53.53,0,0,0-.14-.45L6.3,15,7,14.9a.5.5,0,0,0,.38-.27l.29-.6.29.6a.5.5,0,0,0,.38.27L9,15Z" data-original="#000000" class="active-path" data-old_color="#000000" fill="#009933"/><path d="M22.86,8.12a.51.51,0,0,0-.41-.35l-1.4-.2L20.42,6.3a.52.52,0,0,0-.89,0L18.9,7.57l-1.4.2a.5.5,0,0,0-.4.34.52.52,0,0,0,.12.52l1,1L18,11a.5.5,0,0,0,.72.53L20,10.88l1.25.66a.46.46,0,0,0,.23.06.54.54,0,0,0,.3-.1A.49.49,0,0,0,22,11l-.23-1.39,1-1A.51.51,0,0,0,22.86,8.12Zm-2,1a.5.5,0,0,0-.14.45l.11.65-.59-.31a.55.55,0,0,0-.47,0l-.59.31.12-.65a.53.53,0,0,0-.15-.45l-.47-.46.66-.1a.47.47,0,0,0,.37-.27l.3-.6.29.6a.47.47,0,0,0,.38.27l.66.1Z" data-original="#000000" class="active-path" data-old_color="#000000" fill="#009933"/><path d="M14.22,7.77l-1.4-.2L12.19,6.3A.49.49,0,0,0,11.75,6a.5.5,0,0,0-.45.28l-.63,1.27-1.4.2a.48.48,0,0,0-.4.35A.51.51,0,0,0,9,8.63l1,1L9.77,11a.47.47,0,0,0,.2.49.51.51,0,0,0,.29.1.46.46,0,0,0,.23-.06l1.26-.66,1.25.66a.49.49,0,0,0,.52,0,.47.47,0,0,0,.2-.49l-.24-1.39,1-1a.51.51,0,0,0,.12-.51A.48.48,0,0,0,14.22,7.77ZM12.6,9.08a.53.53,0,0,0-.15.45l.12.65L12,9.87a.55.55,0,0,0-.47,0l-.59.31L11,9.53a.53.53,0,0,0-.15-.45l-.47-.46.65-.1a.47.47,0,0,0,.38-.27l.3-.6.29.6a.47.47,0,0,0,.38.27l.65.1Z" data-original="#000000" class="active-path" data-old_color="#000000" fill="#009933"/><path d="M6.5,7.77l-1.4-.2L4.47,6.3A.5.5,0,0,0,4,6a.49.49,0,0,0-.44.28L3,7.57l-1.4.2a.5.5,0,0,0-.28.86l1,1L2.05,11a.49.49,0,0,0,.19.49.51.51,0,0,0,.53,0L4,10.88l1.26.66a.46.46,0,0,0,.23.06.51.51,0,0,0,.29-.1A.49.49,0,0,0,6,11L5.76,9.62l1-1a.52.52,0,0,0,.12-.52A.5.5,0,0,0,6.5,7.77ZM4.88,9.08a.53.53,0,0,0-.15.45l.12.65-.59-.31A.53.53,0,0,0,4,9.81a.46.46,0,0,0-.23.06l-.59.31.11-.65a.5.5,0,0,0-.14-.45l-.48-.46.66-.1a.47.47,0,0,0,.38-.27L4,7.65l.3.6a.47.47,0,0,0,.37.27l.66.1Z" data-original="#000000" class="active-path" data-old_color="#000000" fill="#009933"/></g> </svg>
