<?xml version="1.0"?>
<svg xmlns="http://www.w3.org/2000/svg" viewBox="0 0 512 512" width="512" height="512"><g id="Out_line" data-name="Out line"><path d="M320,80H256a175.39649,175.39649,0,0,0-52.50708,8H101.13208A31.85935,31.85935,0,0,0,80,80H48a32,32,0,0,0,0,64H80a31.85935,31.85935,0,0,0,21.13208-8h26.24829A175.34268,175.34268,0,0,0,80,256v32a144.14725,144.14725,0,0,0,78.07764,128H101.13208A31.85935,31.85935,0,0,0,80,408H48a32,32,0,0,0,0,64H80a31.85935,31.85935,0,0,0,21.13208-8H320c97.04688,0,176-78.95312,176-176V256C496,158.95312,417.04688,80,320,80ZM204.20825,405.04175A128.18034,128.18034,0,0,1,128,288V256a160.20384,160.20384,0,0,1,92.27637-144.93774A175.93235,175.93235,0,0,0,144,256v32A143.91187,143.91187,0,0,0,204.20825,405.04175ZM144.40991,120H110.9873a32.105,32.105,0,0,0,0-16h56.38111A176.81671,176.81671,0,0,0,144.40991,120ZM32,112a16,16,0,1,1,16,16A16.01833,16.01833,0,0,1,32,112Zm48,16H75.69482a31.88422,31.88422,0,0,0,0-32H80a16,16,0,0,1,0,32ZM96,288V256a160.20384,160.20384,0,0,1,92.27637-144.93774A175.93235,175.93235,0,0,0,112,256v32a143.91187,143.91187,0,0,0,60.20825,117.04175A128.18034,128.18034,0,0,1,96,288ZM32,440a16,16,0,1,1,16,16A16.01833,16.01833,0,0,1,32,440Zm48,16H75.69482a31.88422,31.88422,0,0,0,0-32H80a16,16,0,0,1,0,32ZM480,288c0,88.22412-71.77539,160-160,160H110.9873a32.105,32.105,0,0,0,0-16H320c79.40137,0,144-64.59814,144-144V256c0-79.40186-64.59863-144-144-144S176,176.59814,175.999,256v19.59277A124.40457,124.40457,0,0,0,300.40527,399.99805h6.02246a125.36213,125.36213,0,0,0,88.97168-36.417A123.13191,123.13191,0,0,0,432,275.59912V272A128.1479,128.1479,0,0,0,303.99512,144.00049l-31.9834-.00037L272,144v.00012L258.07617,144A127.9651,127.9651,0,0,1,448,256v32A128.14509,128.14509,0,0,1,320,416H288A128.14509,128.14509,0,0,1,160,288V256c0-88.22412,71.77539-160,160-160s160,71.77588,160,160ZM330.50488,362.5083a127.91957,127.91957,0,0,0-14.71142-193.58765,111.97506,111.97506,0,0,1,.21631,206.05152A128.33769,128.33769,0,0,0,330.50488,362.5083Zm-46.501,12.49988a128.74762,128.74762,0,0,0,14.501-12.49988,128.05614,128.05614,0,0,0-14.293-193.40442,112.02193,112.02193,0,0,1-.208,205.9043ZM232.46924,162.697a112.04486,112.04486,0,0,1,22.09717,211.19092A108.66547,108.66547,0,0,1,191.999,275.59277V256A127.67065,127.67065,0,0,1,232.46924,162.697ZM362.50488,362.5083a127.91983,127.91983,0,0,0-14.70459-193.58288A112.16853,112.16853,0,0,1,416,272v3.59912a107.242,107.242,0,0,1-31.876,76.6294,108.719,108.719,0,0,1-39.38281,25.0487A127.48462,127.48462,0,0,0,362.50488,362.5083Z"/></g></svg>
