<svg id="Stroke" height="512" viewBox="0 0 340 340" width="512" xmlns="http://www.w3.org/2000/svg"><path d="m24.387 190.97a18.183 18.183 0 0 0 7.225-1.507l2.834-1.225 46.973 47.178a16.56 16.56 0 0 0 15.786 4.368l-.37 10.216a41.3 41.3 0 1 0 20.985.822l.677-18.691 23.839-8.69 65.275 43.905a20.1 20.1 0 0 0 31.316-16.349l1.035-62.927a34.144 34.144 0 0 0 22.079-29.217l6.973-86.928a13.211 13.211 0 0 1 5.759-9.908l6.9-4.7a11.719 11.719 0 0 0 13.116 1.32 292.837 292.837 0 0 0 29.974-18.274 17.585 17.585 0 0 0 -17.135-30.527c-8.438 3.705-20.735 9.31-31.4 14.964a11.725 11.725 0 0 0 -5.82 7.174 11.93 11.93 0 0 0 -.462 3.25l-8.627 4.988a34.179 34.179 0 0 0 -16.887 26.328l-8.2 86.856a13.335 13.335 0 0 1 -7.537 10.751 3.5 3.5 0 1 0 2.992 6.328 20.361 20.361 0 0 0 11.513-16.421l8.2-86.854a27.164 27.164 0 0 1 13.426-20.925l7.218-4.174 5.491 9.557-6.706 4.571a20.183 20.183 0 0 0 -8.793 15.133l-6.974 86.927a27.149 27.149 0 0 1 -18 23.4l-15.909 5.62v-81.976a15.123 15.123 0 0 0 2.974-7.9l.3-3.828a10.263 10.263 0 0 0 -14.26-10.236l-195.716 83.531a10.977 10.977 0 0 0 -6.288 7.156 10.857 10.857 0 0 0 1.6 9.279l.174.242a17.809 17.809 0 0 0 14.45 7.393zm252.75-157.056a4.789 4.789 0 0 1 2.374-2.93c10.473-5.554 22.6-11.081 30.932-14.739a10.585 10.585 0 0 1 10.3 18.376 286.093 286.093 0 0 1 -29.263 17.837 4.893 4.893 0 0 1 -6.5-1.89l-7.38-12.859a4.851 4.851 0 0 1 -.463-3.795zm-171.572 264.244c.14.007.278.009.416.009a10.461 10.461 0 0 0 10.489-10.119l.4-10.932a17.274 17.274 0 1 1 -20.979-.946l-.4 11.117a10.5 10.5 0 0 0 10.074 10.871zm-3.086-10.618 1.821-50.24 7.1-2.588-1.924 53.081a3.486 3.486 0 0 1 -3.494 3.373h-.131a3.5 3.5 0 0 1 -3.372-3.626zm37.588 2.794a34.311 34.311 0 1 1 -43.495-33.065l-.39 10.761a24.271 24.271 0 1 0 20.982.879l.391-10.8a34.265 34.265 0 0 1 22.512 32.225zm-43.628-57.618a9.606 9.606 0 0 1 -10.059-2.239l-45.028-45.225 172.8-74.7v79.258zm136.48-42.139-.992 60.3a13.1 13.1 0 0 1 -20.41 10.655l-61.046-41.061 8.134-2.965 56.815 38.215a6.1 6.1 0 0 0 9.508-4.933l1.125-46.2a3.5 3.5 0 1 0 -7-.17l-1.083 44.582-51.23-34.459 52.084-18.985zm-218.019-14.627a4.022 4.022 0 0 1 2.3-2.618l195.716-83.527a3.6 3.6 0 0 1 3.183.35 3.366 3.366 0 0 1 1.351 2.905l-.3 3.828a8.143 8.143 0 0 1 -4.9 6.857l-183.415 79.292a11.052 11.052 0 0 1 -13.274-3.628l-.093-.13a3.856 3.856 0 0 1 -.568-3.329z"/></svg>